<svg width="229" height="229" viewBox="0 0 229 229" fill="none" xmlns="http://www.w3.org/2000/svg">
<path d="M2.40559 138.142C2.82294 140.13 3.29186 142.099 3.81088 144.048L3.81088 84.9519C3.29186 86.9005 2.82294 88.8696 2.40559 90.8576L2.40559 138.142Z" fill="url(#paint0_linear_219_21)"/>
<path d="M1.40559 96.2675C0.608199 101.251 0.132352 106.341 3.57628e-07 111.517L0 117.483C0.132351 122.659 0.608197 127.749 1.40559 132.732L1.40559 96.2675Z" fill="url(#paint1_linear_219_21)"/>
<path d="M4.81089 81.427L4.81088 147.573C5.25116 149.035 5.71988 150.484 6.21638 151.921L6.21638 77.0794C5.71988 78.5159 5.25117 79.9653 4.81089 81.427Z" fill="url(#paint2_linear_219_21)"/>
<path d="M7.21638 74.3036L7.21638 154.696C7.66551 155.894 8.13414 157.082 8.62187 158.261L8.62187 70.7392C8.13414 71.9176 7.66551 73.1058 7.21638 74.3036Z" fill="url(#paint3_linear_219_21)"/>
<path d="M9.62187 68.3978L9.62187 160.602C10.0757 161.633 10.5443 162.655 11.0274 163.67L11.0274 65.3302C10.5443 66.3446 10.0757 67.3672 9.62187 68.3978Z" fill="url(#paint4_linear_219_21)"/>
<path d="M12.0274 63.2833L12.0274 165.717C12.4841 166.628 12.9527 167.533 13.4329 168.431L13.4329 60.5691C12.9527 61.4668 12.4841 62.3716 12.0274 63.2833Z" fill="url(#paint5_linear_219_21)"/>
<path d="M14.4329 58.7401L14.4329 170.26C14.8916 171.081 15.3601 171.896 15.8384 172.705L15.8384 56.2954C15.3601 57.1039 14.8916 57.9189 14.4329 58.7401Z" fill="url(#paint6_linear_219_21)"/>
<path d="M16.8384 54.6368L16.8384 174.363C17.2985 175.112 17.7671 175.855 18.2438 176.592L18.2438 52.4075C17.7671 53.1448 17.2985 53.888 16.8384 54.6368Z" fill="url(#paint7_linear_219_21)"/>
<path d="M19.2438 50.8877L19.2438 178.112C19.705 178.801 20.1735 179.485 20.6491 180.163L20.6491 48.8368C20.1735 49.5151 19.705 50.1987 19.2438 50.8877Z" fill="url(#paint8_linear_219_21)"/>
<path d="M21.6491 47.4333L21.6491 181.567C22.1112 182.205 22.5798 182.839 23.0546 183.467L23.0546 45.5331C22.5798 46.1614 22.1112 46.7949 21.6491 47.4333Z" fill="url(#paint9_linear_219_21)"/>
<path d="M24.0546 44.2292L24.0546 184.771C24.5174 185.365 24.9859 185.955 25.4601 186.54L25.4601 42.4597C24.986 43.0448 24.5174 43.6347 24.0546 44.2292Z" fill="url(#paint10_linear_219_21)"/>
<path d="M26.4601 41.2429L26.4601 187.757C26.9235 188.313 27.392 188.865 27.8656 189.412L27.8656 39.5884C27.392 40.1354 26.9235 40.6869 26.4601 41.2429Z" fill="url(#paint11_linear_219_21)"/>
<path d="M28.8656 38.4487L28.8656 190.551C29.3294 191.073 29.798 191.59 30.2711 192.103L30.2711 36.8966C29.798 37.4096 29.3294 37.927 28.8656 38.4487Z" fill="url(#paint12_linear_219_21)"/>
<path d="M31.2711 35.826L31.2711 193.174C31.7353 193.665 32.2039 194.151 32.6766 194.634L32.6766 34.3662C32.2039 34.8486 31.7353 35.3353 31.2711 35.826Z" fill="url(#paint13_linear_219_21)"/>
<path d="M33.6766 33.3582L33.6766 195.642C34.1411 196.104 34.6096 196.563 35.0819 197.017L35.0819 31.9828C34.6096 32.4372 34.1411 32.8958 33.6766 33.3582Z" fill="url(#paint14_linear_219_21)"/>
<path d="M36.0819 31.032L36.0819 197.968C36.5468 198.405 37.0153 198.838 37.4874 199.267L37.4874 29.7335C37.0153 30.1625 36.5468 30.5953 36.0819 31.032Z" fill="url(#paint15_linear_219_21)"/>
<path d="M38.4874 28.8355L38.4874 200.165C38.9525 200.577 39.421 200.986 39.8929 201.392L39.8929 27.6082C39.421 28.0136 38.9525 28.4226 38.4874 28.8355Z" fill="url(#paint16_linear_219_21)"/>
<path d="M40.8929 26.7591L40.8929 202.241C41.3582 202.631 41.8268 203.018 42.2984 203.402L42.2984 25.5983C41.8268 25.9815 41.3582 26.3685 40.8929 26.7591Z" fill="url(#paint17_linear_219_21)"/>
<path d="M43.2984 24.7947L43.2984 204.205C43.7639 204.575 44.2325 204.941 44.7039 205.304L44.7039 23.6959C44.2325 24.0586 43.764 24.4249 43.2984 24.7947Z" fill="url(#paint18_linear_219_21)"/>
<path d="M45.7039 22.9352L45.7039 206.065C46.1696 206.415 46.6381 206.762 47.1094 207.105L47.1094 21.8948C46.6381 22.2381 46.1696 22.5849 45.7039 22.9352Z" fill="url(#paint19_linear_219_21)"/>
<path d="M48.1094 21.1744L48.1094 207.826C48.5752 208.157 49.0437 208.486 49.5147 208.811L49.5147 20.1892C49.0437 20.5142 48.5752 20.8426 48.1094 21.1744Z" fill="url(#paint20_linear_219_21)"/>
<path d="M50.5147 19.507L50.5147 209.493C50.9807 209.807 51.4492 210.118 51.9202 210.426L51.9202 18.574C51.4492 18.8816 50.9807 19.1926 50.5147 19.507Z" fill="url(#paint21_linear_219_21)"/>
<path d="M52.9202 17.928L52.9202 211.072C53.3864 211.37 53.8549 211.664 54.3256 211.955L54.3257 17.0448C53.8549 17.3359 53.3864 17.6303 52.9202 17.928Z" fill="url(#paint22_linear_219_21)"/>
<path d="M55.3257 16.4334L55.3256 212.567C55.792 212.848 56.2605 213.127 56.7311 213.402L56.7312 15.5977C56.2605 15.873 55.792 16.1516 55.3257 16.4334Z" fill="url(#paint23_linear_219_21)"/>
<path d="M57.7312 15.0195L57.7311 213.98C58.1976 214.247 58.6661 214.51 59.1366 214.771L59.1366 14.2294C58.6661 14.4895 58.1976 14.7529 57.7312 15.0195Z" fill="url(#paint24_linear_219_21)"/>
<path d="M60.1366 13.6829L60.1366 215.317C60.6032 215.569 61.0717 215.818 61.5421 216.063L61.5421 12.9366C61.0717 13.1822 60.6032 13.431 60.1366 13.6829Z" fill="url(#paint25_linear_219_21)"/>
<path d="M62.5421 12.4207L62.5421 216.579C63.0088 216.817 63.4773 217.052 63.9476 217.283L63.9476 11.7166C63.4773 11.9482 63.0088 12.1829 62.5421 12.4207Z" fill="url(#paint26_linear_219_21)"/>
<path d="M64.9476 11.2302L64.9476 217.77C65.4143 217.994 65.8827 218.215 66.3529 218.433L66.3529 10.567C65.8827 10.785 65.4143 11.0061 64.9476 11.2302Z" fill="url(#paint27_linear_219_21)"/>
<path d="M67.3529 10.1092L67.3529 218.891C67.8197 219.102 68.2883 219.31 68.7584 219.515L68.7584 9.48529C68.2883 9.69019 67.8197 9.89815 67.3529 10.1092Z" fill="url(#paint28_linear_219_21)"/>
<path d="M69.7584 9.05515L69.7584 219.945C70.2253 220.143 70.6938 220.338 71.1639 220.53L71.1639 8.46961C70.6938 8.66176 70.2253 8.85695 69.7584 9.05515Z" fill="url(#paint29_linear_219_21)"/>
<path d="M72.1639 8.06635L72.1639 220.934C72.6309 221.119 73.0994 221.302 73.5694 221.482L73.5694 7.51808C73.0994 7.69784 72.6309 7.88061 72.1639 8.06635Z" fill="url(#paint30_linear_219_21)"/>
<path d="M74.5694 7.14099L74.5694 221.859C75.0365 222.033 75.505 222.203 75.9749 222.371L75.9749 6.62903C75.505 6.79671 75.0365 6.96737 74.5694 7.14099Z" fill="url(#paint31_linear_219_21)"/>
<path d="M76.9749 6.27747L76.9749 222.723C77.442 222.884 77.9105 223.043 78.3804 223.199L78.3804 5.80095C77.9105 5.95683 77.442 6.11568 76.9749 6.27747Z" fill="url(#paint32_linear_219_21)"/>
<path d="M79.3804 5.47431L79.3804 223.526C79.8475 223.676 80.3159 223.823 80.7857 223.967L80.7857 5.03251C80.3159 5.17685 79.8475 5.32412 79.3804 5.47431Z" fill="url(#paint33_linear_219_21)"/>
<path d="M81.7857 4.73027L81.7857 224.27C82.2529 224.409 82.7214 224.545 83.1912 224.678L83.1912 4.32234C82.7214 4.4554 82.2529 4.59138 81.7857 4.73027Z" fill="url(#paint34_linear_219_21)"/>
<path d="M84.1912 4.04401L84.1912 224.956C84.6585 225.084 85.127 225.209 85.5967 225.331L85.5967 3.66936C85.127 3.79135 84.6585 3.91623 84.1912 4.04401Z" fill="url(#paint35_linear_219_21)"/>
<path d="M86.5967 3.41449L86.5967 225.586C87.064 225.702 87.5325 225.816 88.0022 225.927L88.0022 3.07255C87.5325 3.18364 87.064 3.29763 86.5967 3.41449Z" fill="url(#paint36_linear_219_21)"/>
<path d="M89.0022 2.84074L89.0022 226.159C89.4696 226.265 89.9381 226.369 90.4076 226.469L90.4077 2.53094C89.9381 2.63134 89.4696 2.73461 89.0022 2.84074Z" fill="url(#paint37_linear_219_21)"/>
<path d="M91.4077 2.32184L91.4076 226.678C91.8751 226.774 92.3436 226.866 92.8131 226.956L92.8131 2.04371C92.3436 2.13356 91.8751 2.22627 91.4077 2.32184Z" fill="url(#paint38_linear_219_21)"/>
<path d="M93.8131 1.85697L93.8131 227.143C94.2806 227.228 94.749 227.31 95.2184 227.39L95.2184 1.61011C94.749 1.68955 94.2806 1.77184 93.8131 1.85697Z" fill="url(#paint39_linear_219_21)"/>
<path d="M96.2184 1.44544L96.2184 227.555C96.686 227.629 97.1545 227.701 97.6239 227.771L97.6239 1.22936C97.1545 1.29854 96.686 1.37057 96.2184 1.44544Z" fill="url(#paint40_linear_219_21)"/>
<path d="M98.6239 1.08649L98.6239 227.914C99.0915 227.978 99.56 228.04 100.029 228.099L100.029 0.900881C99.56 0.959915 99.0915 1.02179 98.6239 1.08649Z" fill="url(#paint41_linear_219_21)"/>
<path d="M101.029 0.779572L101.029 228.22C101.497 228.275 101.966 228.327 102.435 228.376L102.435 0.624104C101.966 0.673096 101.497 0.724926 101.029 0.779572Z" fill="url(#paint42_linear_219_21)"/>
<path d="M103.435 0.524137L103.435 228.476C103.903 228.521 104.371 228.562 104.84 228.601L104.84 0.398525C104.371 0.437571 103.903 0.479448 103.435 0.524137Z" fill="url(#paint43_linear_219_21)"/>
<path d="M105.84 0.319708L105.84 228.68C106.308 228.715 106.777 228.747 107.246 228.776L107.246 0.223698C106.777 0.25288 106.308 0.284889 105.84 0.319708Z" fill="url(#paint44_linear_219_21)"/>
<path d="M108.246 0.165857L108.246 228.834C108.714 228.859 109.182 228.881 109.651 228.901L109.651 0.0992241C109.182 0.118616 108.714 0.140833 108.246 0.165857Z" fill="url(#paint45_linear_219_21)"/>
<path d="M110.651 0.062212L110.651 228.938C111.119 228.953 111.588 228.966 112.057 228.975L112.057 0.0247612C111.588 0.0344276 111.119 0.046917 110.651 0.062212Z" fill="url(#paint46_linear_219_21)"/>
<path d="M113.057 0.00844574L113.057 228.992C113.524 228.997 113.993 229 114.462 229L114.462 0C113.993 0 113.524 0.00282097 113.057 0.00844574Z" fill="url(#paint47_linear_219_21)"/>
<path d="M115.462 0.00427818L115.462 228.996C115.931 228.992 116.4 228.985 116.868 228.975L116.868 0.0247726C116.4 0.015131 115.931 0.00829315 115.462 0.00427818Z" fill="url(#paint48_linear_219_21)"/>
<path d="M117.868 0.0496826L117.868 228.95C118.337 228.937 118.805 228.92 119.273 228.901L119.273 0.0992546C118.805 0.0799179 118.337 0.0633888 117.868 0.0496826Z" fill="url(#paint49_linear_219_21)"/>
<path d="M120.273 0.144915L120.273 228.855C120.742 228.832 121.211 228.805 121.679 228.776L121.679 0.223745C121.211 0.194654 120.742 0.168371 120.273 0.144915Z" fill="url(#paint50_linear_219_21)"/>
<path d="M122.679 0.290293L122.679 228.71C123.148 228.676 123.616 228.64 124.084 228.601L124.084 0.398588C123.616 0.359673 123.148 0.323568 122.679 0.290293Z" fill="url(#paint51_linear_219_21)"/>
<path d="M125.084 0.486183L125.084 228.514C125.553 228.471 126.022 228.425 126.489 228.376L126.489 0.624163C126.022 0.57535 125.553 0.52935 125.084 0.486183Z" fill="url(#paint52_linear_219_21)"/>
<path d="M127.489 0.732983L127.489 228.267C127.959 228.214 128.427 228.158 128.895 228.099L128.895 0.900951C128.427 0.842136 127.959 0.78614 127.489 0.732983Z" fill="url(#paint53_linear_219_21)"/>
<path d="M129.895 1.0312L129.895 227.969C130.364 227.906 130.833 227.839 131.3 227.771L131.3 1.22944C130.833 1.16053 130.364 1.09444 129.895 1.0312Z" fill="url(#paint54_linear_219_21)"/>
<path d="M132.3 1.38135L132.3 227.619C132.77 227.545 133.238 227.469 133.706 227.39L133.706 1.6102C133.238 1.53108 132.77 1.45478 132.3 1.38135Z" fill="url(#paint55_linear_219_21)"/>
<path d="M134.706 1.78402L134.706 227.216C135.175 227.132 135.644 227.046 136.111 226.956L136.111 2.04386C135.644 1.9544 135.175 1.86777 134.706 1.78402Z" fill="url(#paint56_linear_219_21)"/>
<path d="M137.111 2.23986L137.111 226.76C137.581 226.666 138.049 226.569 138.517 226.469L138.517 2.53111C138.049 2.43116 137.581 2.33408 137.111 2.23986Z" fill="url(#paint57_linear_219_21)"/>
<path d="M139.517 2.74961L139.517 226.25C139.986 226.146 140.455 226.038 140.922 225.927L140.922 3.07268C140.455 2.96212 139.986 2.85443 139.517 2.74961Z" fill="url(#paint58_linear_219_21)"/>
<path d="M141.922 3.31403L141.922 225.686C142.392 225.57 142.86 225.452 143.328 225.33L143.328 3.66951C142.86 3.54813 142.392 3.42963 141.922 3.31403Z" fill="url(#paint59_linear_219_21)"/>
<path d="M144.328 3.93409L144.328 225.066C144.797 224.939 145.266 224.81 145.733 224.678L145.733 4.3225C145.266 4.19013 144.797 4.06065 144.328 3.93409Z" fill="url(#paint60_linear_219_21)"/>
<path d="M146.733 4.61073L146.733 224.389C147.203 224.252 147.671 224.111 148.139 223.967L148.139 5.03268C147.671 4.88912 147.203 4.74846 146.733 4.61073Z" fill="url(#paint61_linear_219_21)"/>
<path d="M149.139 5.34502L149.139 223.655C149.609 223.506 150.077 223.354 150.544 223.199L150.544 5.8012C150.077 5.6462 149.609 5.49414 149.139 5.34502Z" fill="url(#paint62_linear_219_21)"/>
<path d="M151.544 6.13814L151.544 222.862C152.014 222.701 152.483 222.537 152.95 222.371L152.95 6.62931C152.483 6.46263 152.014 6.2989 151.544 6.13814Z" fill="url(#paint63_linear_219_21)"/>
<path d="M153.95 6.99142L153.95 222.009C154.42 221.836 154.888 221.66 155.355 221.482L155.355 7.51837C154.888 7.33974 154.42 7.16408 153.95 6.99142Z" fill="url(#paint64_linear_219_21)"/>
<path d="M156.355 7.90626L156.355 221.094C156.825 220.909 157.294 220.721 157.76 220.53L157.76 8.46984C157.294 8.27898 156.825 8.09111 156.355 7.90626Z" fill="url(#paint65_linear_219_21)"/>
<path d="M158.76 8.88419L158.76 220.116C159.231 219.918 159.699 219.718 160.166 219.514L160.166 9.48553C159.699 9.28205 159.231 9.0816 158.76 8.88419Z" fill="url(#paint66_linear_219_21)"/>
<path d="M161.166 9.92708L161.166 219.073C161.636 218.863 162.105 218.649 162.571 218.433L162.571 10.5672C162.105 10.3508 161.636 10.1374 161.166 9.92708Z" fill="url(#paint67_linear_219_21)"/>
<path d="M163.571 11.0368L163.571 217.963C164.042 217.74 164.51 217.513 164.977 217.283L164.977 11.717C164.51 11.4871 164.042 11.2604 163.571 11.0368Z" fill="url(#paint68_linear_219_21)"/>
<path d="M165.977 12.2155L165.977 216.785C166.447 216.547 166.916 216.307 167.382 216.063L167.382 12.937C166.916 12.6933 166.447 12.4528 165.977 12.2155Z" fill="url(#paint69_linear_219_21)"/>
<path d="M168.382 13.4654L168.382 215.535C168.853 215.283 169.321 215.028 169.788 214.77L169.788 14.2298C169.321 13.9718 168.853 13.717 168.382 13.4654Z" fill="url(#paint70_linear_219_21)"/>
<path d="M170.788 14.7893L170.788 214.211C171.258 213.944 171.727 213.675 172.193 213.402L172.193 15.5981C171.727 15.3253 171.258 15.0557 170.788 14.7893Z" fill="url(#paint71_linear_219_21)"/>
<path d="M173.193 16.1899L173.193 212.81C173.664 212.528 174.132 212.243 174.599 211.955L174.599 17.0451C174.132 16.7568 173.664 16.4717 173.193 16.1899Z" fill="url(#paint72_linear_219_21)"/>
<path d="M175.599 17.6706L175.599 211.329C176.07 211.031 176.538 210.73 177.004 210.426L177.004 18.5743C176.538 18.2698 176.07 17.9685 175.599 17.6706Z" fill="url(#paint73_linear_219_21)"/>
<path d="M178.004 19.2351L178.004 209.765C178.475 209.45 178.944 209.132 179.41 208.81L179.41 20.1896C178.944 19.8681 178.475 19.5499 178.004 19.2351Z" fill="url(#paint74_linear_219_21)"/>
<path d="M180.41 20.8874L180.41 208.113C180.881 207.78 181.349 207.444 181.815 207.105L181.815 21.8953C181.349 21.5559 180.881 21.22 180.41 20.8874Z" fill="url(#paint75_linear_219_21)"/>
<path d="M182.815 22.6322L182.815 206.368C183.286 206.017 183.755 205.662 184.221 205.303L184.221 23.6965C183.755 23.3382 183.287 22.9835 182.815 22.6322Z" fill="url(#paint76_linear_219_21)"/>
<path d="M185.221 24.4747L185.221 204.525C185.692 204.154 186.161 203.779 186.626 203.401L186.626 25.5989C186.161 25.2206 185.692 24.8458 185.221 24.4747Z" fill="url(#paint77_linear_219_21)"/>
<path d="M187.626 26.421L187.626 202.579C188.098 202.187 188.566 201.791 189.031 201.391L189.031 27.6087C188.566 27.2091 188.098 26.8132 187.626 26.421Z" fill="url(#paint78_linear_219_21)"/>
<path d="M190.031 28.4778L190.031 200.522C190.503 200.107 190.972 199.689 191.437 199.266L191.437 29.734C190.972 29.3115 190.503 28.8927 190.031 28.4778Z" fill="url(#paint79_linear_219_21)"/>
<path d="M192.437 30.6534L192.437 198.347C192.909 197.907 193.378 197.464 193.842 197.017L193.842 31.9833C193.378 31.5361 192.909 31.0928 192.437 30.6534Z" fill="url(#paint80_linear_219_21)"/>
<path d="M194.842 32.9573L194.842 196.043C195.315 195.577 195.784 195.107 196.248 194.633L196.248 34.367C195.784 33.893 195.315 33.4231 194.842 32.9573Z" fill="url(#paint81_linear_219_21)"/>
<path d="M197.248 35.4003L197.248 193.6C197.721 193.105 198.189 192.606 198.653 192.103L198.653 36.8974C198.189 36.3942 197.721 35.8951 197.248 35.4003Z" fill="url(#paint82_linear_219_21)"/>
<path d="M199.653 37.9959L199.653 191.004C200.127 190.477 200.595 189.946 201.059 189.411L201.059 39.5892C200.595 39.0538 200.127 38.5226 199.653 37.9959Z" fill="url(#paint83_linear_219_21)"/>
<path d="M202.059 40.76L202.059 188.24C202.533 187.678 203.001 187.111 203.464 186.54L203.464 42.4604C203.001 41.889 202.533 41.3222 202.059 40.76Z" fill="url(#paint84_linear_219_21)"/>
<path d="M204.464 43.7121L204.464 185.288C204.939 184.686 205.407 184.078 205.87 183.466L205.87 45.5338C205.407 44.9217 204.939 44.3145 204.464 43.7121Z" fill="url(#paint85_linear_219_21)"/>
<path d="M206.87 46.8774L206.87 182.123C207.345 181.474 207.813 180.821 208.275 180.162L208.275 48.8376C207.813 48.1791 207.345 47.5256 206.87 46.8774Z" fill="url(#paint86_linear_219_21)"/>
<path d="M209.275 50.2872L209.275 178.713C209.751 178.011 210.22 177.304 210.681 176.591L210.681 52.4087C210.22 51.6961 209.751 50.9888 209.275 50.2872Z" fill="url(#paint87_linear_219_21)"/>
<path d="M211.681 53.9831L211.681 175.017C212.158 174.252 212.627 173.48 213.086 172.703L213.086 56.2967C212.627 55.5195 212.158 54.7483 211.681 53.9831Z" fill="url(#paint88_linear_219_21)"/>
<path d="M214.086 58.0216L214.086 170.978C214.565 170.135 215.034 169.286 215.492 168.429L215.492 60.5705C215.034 59.7143 214.565 58.8646 214.086 58.0216Z" fill="url(#paint89_linear_219_21)"/>
<path d="M216.492 62.4832L216.492 166.517C216.973 165.575 217.442 164.625 217.897 163.668L217.897 65.3318C217.442 64.3749 216.973 63.4253 216.492 62.4832Z" fill="url(#paint90_linear_219_21)"/>
<path d="M218.897 67.4895L218.897 161.511C219.382 160.436 219.85 159.352 220.302 158.259L220.303 70.7406C219.85 69.6483 219.382 68.5645 218.897 67.4895Z" fill="url(#paint91_linear_219_21)"/>
<path d="M221.303 73.2399L221.302 155.76C221.793 154.491 222.262 153.21 222.708 151.919L222.708 77.0811C222.262 75.79 221.793 74.5095 221.303 73.2399Z" fill="url(#paint92_linear_219_21)"/>
<path d="M223.708 80.1116L223.708 148.888C224.211 147.289 224.68 145.675 225.113 144.046L225.113 84.954C224.68 83.3253 224.211 81.7109 223.708 80.1116Z" fill="url(#paint93_linear_219_21)"/>
<path d="M226.113 89.0064L226.113 139.994C226.658 137.599 227.127 135.177 227.519 132.728L227.519 96.2721C227.127 93.8234 226.658 91.4007 226.113 89.0064Z" fill="url(#paint94_linear_219_21)"/>
<path d="M228.519 104.359L228.519 124.641C228.812 121.3 228.962 117.917 228.962 114.5C228.962 111.083 228.812 107.7 228.519 104.359Z" fill="url(#paint95_linear_219_21)"/>
<defs>
<linearGradient id="paint0_linear_219_21" x1="114.481" y1="0" x2="166.462" y2="222.5" gradientUnits="userSpaceOnUse">
<stop/>
<stop offset="1" stop-opacity="0"/>
</linearGradient>
<linearGradient id="paint1_linear_219_21" x1="114.481" y1="0" x2="166.462" y2="222.5" gradientUnits="userSpaceOnUse">
<stop/>
<stop offset="1" stop-opacity="0"/>
</linearGradient>
<linearGradient id="paint2_linear_219_21" x1="114.481" y1="0" x2="166.462" y2="222.5" gradientUnits="userSpaceOnUse">
<stop/>
<stop offset="1" stop-opacity="0"/>
</linearGradient>
<linearGradient id="paint3_linear_219_21" x1="114.481" y1="0" x2="166.462" y2="222.5" gradientUnits="userSpaceOnUse">
<stop/>
<stop offset="1" stop-opacity="0"/>
</linearGradient>
<linearGradient id="paint4_linear_219_21" x1="114.481" y1="0" x2="166.462" y2="222.5" gradientUnits="userSpaceOnUse">
<stop/>
<stop offset="1" stop-opacity="0"/>
</linearGradient>
<linearGradient id="paint5_linear_219_21" x1="114.481" y1="0" x2="166.462" y2="222.5" gradientUnits="userSpaceOnUse">
<stop/>
<stop offset="1" stop-opacity="0"/>
</linearGradient>
<linearGradient id="paint6_linear_219_21" x1="114.481" y1="0" x2="166.462" y2="222.5" gradientUnits="userSpaceOnUse">
<stop/>
<stop offset="1" stop-opacity="0"/>
</linearGradient>
<linearGradient id="paint7_linear_219_21" x1="114.481" y1="0" x2="166.462" y2="222.5" gradientUnits="userSpaceOnUse">
<stop/>
<stop offset="1" stop-opacity="0"/>
</linearGradient>
<linearGradient id="paint8_linear_219_21" x1="114.481" y1="0" x2="166.462" y2="222.5" gradientUnits="userSpaceOnUse">
<stop/>
<stop offset="1" stop-opacity="0"/>
</linearGradient>
<linearGradient id="paint9_linear_219_21" x1="114.481" y1="0" x2="166.462" y2="222.5" gradientUnits="userSpaceOnUse">
<stop/>
<stop offset="1" stop-opacity="0"/>
</linearGradient>
<linearGradient id="paint10_linear_219_21" x1="114.481" y1="0" x2="166.462" y2="222.5" gradientUnits="userSpaceOnUse">
<stop/>
<stop offset="1" stop-opacity="0"/>
</linearGradient>
<linearGradient id="paint11_linear_219_21" x1="114.481" y1="0" x2="166.462" y2="222.5" gradientUnits="userSpaceOnUse">
<stop/>
<stop offset="1" stop-opacity="0"/>
</linearGradient>
<linearGradient id="paint12_linear_219_21" x1="114.481" y1="0" x2="166.462" y2="222.5" gradientUnits="userSpaceOnUse">
<stop/>
<stop offset="1" stop-opacity="0"/>
</linearGradient>
<linearGradient id="paint13_linear_219_21" x1="114.481" y1="0" x2="166.462" y2="222.5" gradientUnits="userSpaceOnUse">
<stop/>
<stop offset="1" stop-opacity="0"/>
</linearGradient>
<linearGradient id="paint14_linear_219_21" x1="114.481" y1="0" x2="166.462" y2="222.5" gradientUnits="userSpaceOnUse">
<stop/>
<stop offset="1" stop-opacity="0"/>
</linearGradient>
<linearGradient id="paint15_linear_219_21" x1="114.481" y1="0" x2="166.462" y2="222.5" gradientUnits="userSpaceOnUse">
<stop/>
<stop offset="1" stop-opacity="0"/>
</linearGradient>
<linearGradient id="paint16_linear_219_21" x1="114.481" y1="0" x2="166.462" y2="222.5" gradientUnits="userSpaceOnUse">
<stop/>
<stop offset="1" stop-opacity="0"/>
</linearGradient>
<linearGradient id="paint17_linear_219_21" x1="114.481" y1="0" x2="166.462" y2="222.5" gradientUnits="userSpaceOnUse">
<stop/>
<stop offset="1" stop-opacity="0"/>
</linearGradient>
<linearGradient id="paint18_linear_219_21" x1="114.481" y1="0" x2="166.462" y2="222.5" gradientUnits="userSpaceOnUse">
<stop/>
<stop offset="1" stop-opacity="0"/>
</linearGradient>
<linearGradient id="paint19_linear_219_21" x1="114.481" y1="0" x2="166.462" y2="222.5" gradientUnits="userSpaceOnUse">
<stop/>
<stop offset="1" stop-opacity="0"/>
</linearGradient>
<linearGradient id="paint20_linear_219_21" x1="114.481" y1="0" x2="166.462" y2="222.5" gradientUnits="userSpaceOnUse">
<stop/>
<stop offset="1" stop-opacity="0"/>
</linearGradient>
<linearGradient id="paint21_linear_219_21" x1="114.481" y1="0" x2="166.462" y2="222.5" gradientUnits="userSpaceOnUse">
<stop/>
<stop offset="1" stop-opacity="0"/>
</linearGradient>
<linearGradient id="paint22_linear_219_21" x1="114.481" y1="0" x2="166.462" y2="222.5" gradientUnits="userSpaceOnUse">
<stop/>
<stop offset="1" stop-opacity="0"/>
</linearGradient>
<linearGradient id="paint23_linear_219_21" x1="114.481" y1="0" x2="166.462" y2="222.5" gradientUnits="userSpaceOnUse">
<stop/>
<stop offset="1" stop-opacity="0"/>
</linearGradient>
<linearGradient id="paint24_linear_219_21" x1="114.481" y1="0" x2="166.462" y2="222.5" gradientUnits="userSpaceOnUse">
<stop/>
<stop offset="1" stop-opacity="0"/>
</linearGradient>
<linearGradient id="paint25_linear_219_21" x1="114.481" y1="0" x2="166.462" y2="222.5" gradientUnits="userSpaceOnUse">
<stop/>
<stop offset="1" stop-opacity="0"/>
</linearGradient>
<linearGradient id="paint26_linear_219_21" x1="114.481" y1="0" x2="166.462" y2="222.5" gradientUnits="userSpaceOnUse">
<stop/>
<stop offset="1" stop-opacity="0"/>
</linearGradient>
<linearGradient id="paint27_linear_219_21" x1="114.481" y1="0" x2="166.462" y2="222.5" gradientUnits="userSpaceOnUse">
<stop/>
<stop offset="1" stop-opacity="0"/>
</linearGradient>
<linearGradient id="paint28_linear_219_21" x1="114.481" y1="0" x2="166.462" y2="222.5" gradientUnits="userSpaceOnUse">
<stop/>
<stop offset="1" stop-opacity="0"/>
</linearGradient>
<linearGradient id="paint29_linear_219_21" x1="114.481" y1="0" x2="166.462" y2="222.5" gradientUnits="userSpaceOnUse">
<stop/>
<stop offset="1" stop-opacity="0"/>
</linearGradient>
<linearGradient id="paint30_linear_219_21" x1="114.481" y1="0" x2="166.462" y2="222.5" gradientUnits="userSpaceOnUse">
<stop/>
<stop offset="1" stop-opacity="0"/>
</linearGradient>
<linearGradient id="paint31_linear_219_21" x1="114.481" y1="0" x2="166.462" y2="222.5" gradientUnits="userSpaceOnUse">
<stop/>
<stop offset="1" stop-opacity="0"/>
</linearGradient>
<linearGradient id="paint32_linear_219_21" x1="114.481" y1="0" x2="166.462" y2="222.5" gradientUnits="userSpaceOnUse">
<stop/>
<stop offset="1" stop-opacity="0"/>
</linearGradient>
<linearGradient id="paint33_linear_219_21" x1="114.481" y1="0" x2="166.462" y2="222.5" gradientUnits="userSpaceOnUse">
<stop/>
<stop offset="1" stop-opacity="0"/>
</linearGradient>
<linearGradient id="paint34_linear_219_21" x1="114.481" y1="0" x2="166.462" y2="222.5" gradientUnits="userSpaceOnUse">
<stop/>
<stop offset="1" stop-opacity="0"/>
</linearGradient>
<linearGradient id="paint35_linear_219_21" x1="114.481" y1="0" x2="166.462" y2="222.5" gradientUnits="userSpaceOnUse">
<stop/>
<stop offset="1" stop-opacity="0"/>
</linearGradient>
<linearGradient id="paint36_linear_219_21" x1="114.481" y1="0" x2="166.462" y2="222.5" gradientUnits="userSpaceOnUse">
<stop/>
<stop offset="1" stop-opacity="0"/>
</linearGradient>
<linearGradient id="paint37_linear_219_21" x1="114.481" y1="0" x2="166.462" y2="222.5" gradientUnits="userSpaceOnUse">
<stop/>
<stop offset="1" stop-opacity="0"/>
</linearGradient>
<linearGradient id="paint38_linear_219_21" x1="114.481" y1="0" x2="166.462" y2="222.5" gradientUnits="userSpaceOnUse">
<stop/>
<stop offset="1" stop-opacity="0"/>
</linearGradient>
<linearGradient id="paint39_linear_219_21" x1="114.481" y1="0" x2="166.462" y2="222.5" gradientUnits="userSpaceOnUse">
<stop/>
<stop offset="1" stop-opacity="0"/>
</linearGradient>
<linearGradient id="paint40_linear_219_21" x1="114.481" y1="0" x2="166.462" y2="222.5" gradientUnits="userSpaceOnUse">
<stop/>
<stop offset="1" stop-opacity="0"/>
</linearGradient>
<linearGradient id="paint41_linear_219_21" x1="114.481" y1="0" x2="166.462" y2="222.5" gradientUnits="userSpaceOnUse">
<stop/>
<stop offset="1" stop-opacity="0"/>
</linearGradient>
<linearGradient id="paint42_linear_219_21" x1="114.481" y1="0" x2="166.462" y2="222.5" gradientUnits="userSpaceOnUse">
<stop/>
<stop offset="1" stop-opacity="0"/>
</linearGradient>
<linearGradient id="paint43_linear_219_21" x1="114.481" y1="0" x2="166.462" y2="222.5" gradientUnits="userSpaceOnUse">
<stop/>
<stop offset="1" stop-opacity="0"/>
</linearGradient>
<linearGradient id="paint44_linear_219_21" x1="114.481" y1="0" x2="166.462" y2="222.5" gradientUnits="userSpaceOnUse">
<stop/>
<stop offset="1" stop-opacity="0"/>
</linearGradient>
<linearGradient id="paint45_linear_219_21" x1="114.481" y1="0" x2="166.462" y2="222.5" gradientUnits="userSpaceOnUse">
<stop/>
<stop offset="1" stop-opacity="0"/>
</linearGradient>
<linearGradient id="paint46_linear_219_21" x1="114.481" y1="0" x2="166.462" y2="222.5" gradientUnits="userSpaceOnUse">
<stop/>
<stop offset="1" stop-opacity="0"/>
</linearGradient>
<linearGradient id="paint47_linear_219_21" x1="114.481" y1="0" x2="166.462" y2="222.5" gradientUnits="userSpaceOnUse">
<stop/>
<stop offset="1" stop-opacity="0"/>
</linearGradient>
<linearGradient id="paint48_linear_219_21" x1="114.481" y1="0" x2="166.462" y2="222.5" gradientUnits="userSpaceOnUse">
<stop/>
<stop offset="1" stop-opacity="0"/>
</linearGradient>
<linearGradient id="paint49_linear_219_21" x1="114.481" y1="0" x2="166.462" y2="222.5" gradientUnits="userSpaceOnUse">
<stop/>
<stop offset="1" stop-opacity="0"/>
</linearGradient>
<linearGradient id="paint50_linear_219_21" x1="114.481" y1="0" x2="166.462" y2="222.5" gradientUnits="userSpaceOnUse">
<stop/>
<stop offset="1" stop-opacity="0"/>
</linearGradient>
<linearGradient id="paint51_linear_219_21" x1="114.481" y1="0" x2="166.462" y2="222.5" gradientUnits="userSpaceOnUse">
<stop/>
<stop offset="1" stop-opacity="0"/>
</linearGradient>
<linearGradient id="paint52_linear_219_21" x1="114.481" y1="0" x2="166.462" y2="222.5" gradientUnits="userSpaceOnUse">
<stop/>
<stop offset="1" stop-opacity="0"/>
</linearGradient>
<linearGradient id="paint53_linear_219_21" x1="114.481" y1="0" x2="166.462" y2="222.5" gradientUnits="userSpaceOnUse">
<stop/>
<stop offset="1" stop-opacity="0"/>
</linearGradient>
<linearGradient id="paint54_linear_219_21" x1="114.481" y1="0" x2="166.462" y2="222.5" gradientUnits="userSpaceOnUse">
<stop/>
<stop offset="1" stop-opacity="0"/>
</linearGradient>
<linearGradient id="paint55_linear_219_21" x1="114.481" y1="0" x2="166.462" y2="222.5" gradientUnits="userSpaceOnUse">
<stop/>
<stop offset="1" stop-opacity="0"/>
</linearGradient>
<linearGradient id="paint56_linear_219_21" x1="114.481" y1="0" x2="166.462" y2="222.5" gradientUnits="userSpaceOnUse">
<stop/>
<stop offset="1" stop-opacity="0"/>
</linearGradient>
<linearGradient id="paint57_linear_219_21" x1="114.481" y1="0" x2="166.462" y2="222.5" gradientUnits="userSpaceOnUse">
<stop/>
<stop offset="1" stop-opacity="0"/>
</linearGradient>
<linearGradient id="paint58_linear_219_21" x1="114.481" y1="0" x2="166.462" y2="222.5" gradientUnits="userSpaceOnUse">
<stop/>
<stop offset="1" stop-opacity="0"/>
</linearGradient>
<linearGradient id="paint59_linear_219_21" x1="114.481" y1="0" x2="166.462" y2="222.5" gradientUnits="userSpaceOnUse">
<stop/>
<stop offset="1" stop-opacity="0"/>
</linearGradient>
<linearGradient id="paint60_linear_219_21" x1="114.481" y1="0" x2="166.462" y2="222.5" gradientUnits="userSpaceOnUse">
<stop/>
<stop offset="1" stop-opacity="0"/>
</linearGradient>
<linearGradient id="paint61_linear_219_21" x1="114.481" y1="0" x2="166.462" y2="222.5" gradientUnits="userSpaceOnUse">
<stop/>
<stop offset="1" stop-opacity="0"/>
</linearGradient>
<linearGradient id="paint62_linear_219_21" x1="114.481" y1="0" x2="166.462" y2="222.5" gradientUnits="userSpaceOnUse">
<stop/>
<stop offset="1" stop-opacity="0"/>
</linearGradient>
<linearGradient id="paint63_linear_219_21" x1="114.481" y1="0" x2="166.462" y2="222.5" gradientUnits="userSpaceOnUse">
<stop/>
<stop offset="1" stop-opacity="0"/>
</linearGradient>
<linearGradient id="paint64_linear_219_21" x1="114.481" y1="0" x2="166.462" y2="222.5" gradientUnits="userSpaceOnUse">
<stop/>
<stop offset="1" stop-opacity="0"/>
</linearGradient>
<linearGradient id="paint65_linear_219_21" x1="114.481" y1="0" x2="166.462" y2="222.5" gradientUnits="userSpaceOnUse">
<stop/>
<stop offset="1" stop-opacity="0"/>
</linearGradient>
<linearGradient id="paint66_linear_219_21" x1="114.481" y1="0" x2="166.462" y2="222.5" gradientUnits="userSpaceOnUse">
<stop/>
<stop offset="1" stop-opacity="0"/>
</linearGradient>
<linearGradient id="paint67_linear_219_21" x1="114.481" y1="0" x2="166.462" y2="222.5" gradientUnits="userSpaceOnUse">
<stop/>
<stop offset="1" stop-opacity="0"/>
</linearGradient>
<linearGradient id="paint68_linear_219_21" x1="114.481" y1="0" x2="166.462" y2="222.5" gradientUnits="userSpaceOnUse">
<stop/>
<stop offset="1" stop-opacity="0"/>
</linearGradient>
<linearGradient id="paint69_linear_219_21" x1="114.481" y1="0" x2="166.462" y2="222.5" gradientUnits="userSpaceOnUse">
<stop/>
<stop offset="1" stop-opacity="0"/>
</linearGradient>
<linearGradient id="paint70_linear_219_21" x1="114.481" y1="0" x2="166.462" y2="222.5" gradientUnits="userSpaceOnUse">
<stop/>
<stop offset="1" stop-opacity="0"/>
</linearGradient>
<linearGradient id="paint71_linear_219_21" x1="114.481" y1="0" x2="166.462" y2="222.5" gradientUnits="userSpaceOnUse">
<stop/>
<stop offset="1" stop-opacity="0"/>
</linearGradient>
<linearGradient id="paint72_linear_219_21" x1="114.481" y1="0" x2="166.462" y2="222.5" gradientUnits="userSpaceOnUse">
<stop/>
<stop offset="1" stop-opacity="0"/>
</linearGradient>
<linearGradient id="paint73_linear_219_21" x1="114.481" y1="0" x2="166.462" y2="222.5" gradientUnits="userSpaceOnUse">
<stop/>
<stop offset="1" stop-opacity="0"/>
</linearGradient>
<linearGradient id="paint74_linear_219_21" x1="114.481" y1="0" x2="166.462" y2="222.5" gradientUnits="userSpaceOnUse">
<stop/>
<stop offset="1" stop-opacity="0"/>
</linearGradient>
<linearGradient id="paint75_linear_219_21" x1="114.481" y1="0" x2="166.462" y2="222.5" gradientUnits="userSpaceOnUse">
<stop/>
<stop offset="1" stop-opacity="0"/>
</linearGradient>
<linearGradient id="paint76_linear_219_21" x1="114.481" y1="0" x2="166.462" y2="222.5" gradientUnits="userSpaceOnUse">
<stop/>
<stop offset="1" stop-opacity="0"/>
</linearGradient>
<linearGradient id="paint77_linear_219_21" x1="114.481" y1="0" x2="166.462" y2="222.5" gradientUnits="userSpaceOnUse">
<stop/>
<stop offset="1" stop-opacity="0"/>
</linearGradient>
<linearGradient id="paint78_linear_219_21" x1="114.481" y1="0" x2="166.462" y2="222.5" gradientUnits="userSpaceOnUse">
<stop/>
<stop offset="1" stop-opacity="0"/>
</linearGradient>
<linearGradient id="paint79_linear_219_21" x1="114.481" y1="0" x2="166.462" y2="222.5" gradientUnits="userSpaceOnUse">
<stop/>
<stop offset="1" stop-opacity="0"/>
</linearGradient>
<linearGradient id="paint80_linear_219_21" x1="114.481" y1="0" x2="166.462" y2="222.5" gradientUnits="userSpaceOnUse">
<stop/>
<stop offset="1" stop-opacity="0"/>
</linearGradient>
<linearGradient id="paint81_linear_219_21" x1="114.481" y1="0" x2="166.462" y2="222.5" gradientUnits="userSpaceOnUse">
<stop/>
<stop offset="1" stop-opacity="0"/>
</linearGradient>
<linearGradient id="paint82_linear_219_21" x1="114.481" y1="0" x2="166.462" y2="222.5" gradientUnits="userSpaceOnUse">
<stop/>
<stop offset="1" stop-opacity="0"/>
</linearGradient>
<linearGradient id="paint83_linear_219_21" x1="114.481" y1="0" x2="166.462" y2="222.5" gradientUnits="userSpaceOnUse">
<stop/>
<stop offset="1" stop-opacity="0"/>
</linearGradient>
<linearGradient id="paint84_linear_219_21" x1="114.481" y1="0" x2="166.462" y2="222.5" gradientUnits="userSpaceOnUse">
<stop/>
<stop offset="1" stop-opacity="0"/>
</linearGradient>
<linearGradient id="paint85_linear_219_21" x1="114.481" y1="0" x2="166.462" y2="222.5" gradientUnits="userSpaceOnUse">
<stop/>
<stop offset="1" stop-opacity="0"/>
</linearGradient>
<linearGradient id="paint86_linear_219_21" x1="114.481" y1="0" x2="166.462" y2="222.5" gradientUnits="userSpaceOnUse">
<stop/>
<stop offset="1" stop-opacity="0"/>
</linearGradient>
<linearGradient id="paint87_linear_219_21" x1="114.481" y1="0" x2="166.462" y2="222.5" gradientUnits="userSpaceOnUse">
<stop/>
<stop offset="1" stop-opacity="0"/>
</linearGradient>
<linearGradient id="paint88_linear_219_21" x1="114.481" y1="0" x2="166.462" y2="222.5" gradientUnits="userSpaceOnUse">
<stop/>
<stop offset="1" stop-opacity="0"/>
</linearGradient>
<linearGradient id="paint89_linear_219_21" x1="114.481" y1="0" x2="166.462" y2="222.5" gradientUnits="userSpaceOnUse">
<stop/>
<stop offset="1" stop-opacity="0"/>
</linearGradient>
<linearGradient id="paint90_linear_219_21" x1="114.481" y1="0" x2="166.462" y2="222.5" gradientUnits="userSpaceOnUse">
<stop/>
<stop offset="1" stop-opacity="0"/>
</linearGradient>
<linearGradient id="paint91_linear_219_21" x1="114.481" y1="0" x2="166.462" y2="222.5" gradientUnits="userSpaceOnUse">
<stop/>
<stop offset="1" stop-opacity="0"/>
</linearGradient>
<linearGradient id="paint92_linear_219_21" x1="114.481" y1="0" x2="166.462" y2="222.5" gradientUnits="userSpaceOnUse">
<stop/>
<stop offset="1" stop-opacity="0"/>
</linearGradient>
<linearGradient id="paint93_linear_219_21" x1="114.481" y1="0" x2="166.462" y2="222.5" gradientUnits="userSpaceOnUse">
<stop/>
<stop offset="1" stop-opacity="0"/>
</linearGradient>
<linearGradient id="paint94_linear_219_21" x1="114.481" y1="0" x2="166.462" y2="222.5" gradientUnits="userSpaceOnUse">
<stop/>
<stop offset="1" stop-opacity="0"/>
</linearGradient>
<linearGradient id="paint95_linear_219_21" x1="114.481" y1="0" x2="166.462" y2="222.5" gradientUnits="userSpaceOnUse">
<stop/>
<stop offset="1" stop-opacity="0"/>
</linearGradient>
</defs>
</svg>
